<svg viewBox="0 0 375 271" xmlns="http://www.w3.org/2000/svg">
<path id="Menu_Squaves" fill-rule="evenodd" clip-rule="evenodd" d="M0 271L0 65.1593C0 59.6364 4.47715 55.1593 10 55.1593H12C17.5228 55.1593 22 50.6821 22 45.1593V10C22 4.47715 26.4772 0 32 0L34 0C39.5228 0 44 4.47715 44 10V16.3805C44 21.9034 48.4772 26.3805 54 26.3805H56C61.5228 26.3805 66 30.8577 66 36.3805V179.46C66 184.983 70.4771 189.46 76 189.46H78C83.5229 189.46 88 184.983 88 179.46V65.1593C88 59.6364 92.4771 55.1593 98 55.1593H100C105.523 55.1593 110 59.6364 110 65.1593V71.5398C110 77.0627 114.477 81.5398 120 81.5398H132H144C149.523 81.5398 154 77.0627 154 71.5398V36.3805C154 30.8577 158.477 26.3805 164 26.3805H166C171.523 26.3805 176 30.8577 176 36.3805V126.699C176 132.222 180.477 136.699 186 136.699H189C194.523 136.699 199 141.176 199 146.699V153.08C199 158.603 203.477 163.08 209 163.08H211C216.523 163.08 221 158.602 221 153.08V146.699C221 141.176 225.477 136.699 231 136.699H233C238.523 136.699 243 132.222 243 126.699V65.1593C243 59.6364 247.477 55.1593 253 55.1593H255C260.523 55.1593 265 59.6364 265 65.1593V234.619C265 240.142 269.477 244.619 275 244.619H277C282.523 244.619 287 249.097 287 254.619V271H309V225.841C309 220.318 313.477 215.841 319 215.841H321C326.523 215.841 331 220.318 331 225.841V234.619C331 240.142 335.477 244.619 341 244.619H343C348.523 244.619 353 240.142 353 234.619V36.3805C353 30.8577 357.477 26.3805 363 26.3805H365C370.523 26.3805 375 30.8577 375 36.3805V261C375 266.523 370.523 271 365 271H353H331H309H287H265H243H221H199H176H154H132H110H88H66H44H22H0Z" fill="url(#paint0_linear)"/>
<defs>
<linearGradient id="paint0_linear" x1="187.5" y1="0" x2="187.5" y2="271" gradientUnits="userSpaceOnUse">
<stop stop-color="#FF007A"/>
<stop offset="1" stop-color="#FF00B8"/>
</linearGradient>
</defs>
</svg>
