<svg width="369" height="120" viewBox="0 0 369 120" fill="none" xmlns="http://www.w3.org/2000/svg">
<path d="M20.0742 26.3594C14.6016 26.3594 13.6406 32.2773 13.6406 36.5703C13.6406 40.7109 14.6016 47.2227 20.0039 47.2227C25.6211 47.2227 26.3633 40.8594 26.3633 36.5703C26.3633 32.3516 25.5508 26.3594 20.0742 26.3594ZM24.8867 56.2461C20.2969 56.2461 15.7852 53.8047 14.0117 49.4414V71.4102H0.324219V27.7656C0.324219 23.2539 0.179688 20.5898 0.0273438 18.0742H12.9727L13.1953 24.2148C15.3398 19.6289 20.2227 17.3359 25.2539 17.3359C36.4961 17.3359 40.9375 26.582 40.9375 36.5703C40.9375 46.9258 36.5742 56.2461 24.8867 56.2461Z" fill="white"/>
<path d="M90.6445 55.4336V33.0195C90.6445 29.7656 89.9805 26.6562 86.0586 26.6562C81.9141 26.6562 80.9531 30.8711 80.9531 34.4258V55.4336H67.4141V33.0195C67.4141 29.8359 66.75 26.6562 62.9062 26.6562C58.9102 26.6562 57.7266 30.8711 57.7266 34.4258V55.4336H44.0391V26.1406C44.0391 23.4766 44.0391 20.7383 43.7461 18.0781H56.6914L56.8398 24.2148C58.9805 19.7773 63.3477 17.3359 68.9688 17.3359C74.3711 17.3359 78.5859 19.8516 80.1406 24.4375C82.0625 19.7773 87.1641 17.3359 91.9023 17.3359C101.59 17.3359 104.328 23.4023 104.328 32.1328V55.4336" fill="white"/>
<path d="M127.328 24.7344C122.301 24.7344 120.746 29.8398 120.746 33.6836H133.32C133.32 29.7617 132.211 24.7344 127.328 24.7344ZM120.82 40.1211C120.895 45.9648 126.074 48.4805 131.324 48.4805C135.098 48.4805 139.609 47.8867 143.012 46.0391L143.457 54.1758C138.797 55.7266 133.102 56.2461 128.145 56.2461C115.422 56.2461 107.43 49.7383 107.43 36.5703C107.43 24.3633 115.937 17.3398 127.258 17.3398C140.277 17.3398 145.379 25.5469 145.379 37.8281V40.1211" fill="white"/>
<path d="M172.375 55.4336V33.832C172.375 30.4297 172.008 26.6562 167.641 26.6562C163.203 26.6562 162.094 30.8008 162.094 34.4961V55.4336H148.41V26.1406C148.41 23.4766 148.41 20.7383 148.113 18.0781H161.059L161.207 24.2148C163.5 19.5547 168.309 17.3359 173.34 17.3359C181.922 17.3359 186.062 22.1445 186.062 30.5781V55.4336" fill="white"/>
<path d="M210.246 25.9922C205.066 25.9922 203.812 31.9805 203.812 36.5703C203.812 41.9687 205.145 47.5156 210.246 47.5156C215.5 47.5156 216.684 42.0469 216.684 36.5703C216.684 31.9805 215.648 25.9922 210.246 25.9922ZM210.246 56.2461C197.375 56.2461 189.238 49.4414 189.238 36.5703C189.238 23.4023 198.41 17.3359 210.246 17.3359C222.602 17.3359 231.254 23.2539 231.254 36.5703C231.254 49.5156 222.824 56.2461 210.246 56.2461Z" fill="white"/>
<path d="M246.492 56.2461C241.832 56.2461 237.172 55.582 232.73 54.3242L233.176 45.7422C236.652 47.5898 240.867 48.4805 244.789 48.4805C247.156 48.4805 251.742 47.8125 251.742 44.7812C251.742 38.1953 232.359 41.6758 232.359 29.1016C232.359 19.8516 242.937 17.2617 250.34 17.2617C254.406 17.2617 258.621 18.0039 262.617 18.9648L262.176 27.1016C258.77 25.8437 254.926 25.0273 251.227 25.0273C248.93 25.0273 245.012 25.4727 245.012 28.582C245.012 33.9063 264.469 30.7266 264.469 43.5977C264.469 53.4336 254.629 56.2461 246.492 56.2461Z" fill="white"/>
<path d="M276.883 55.6875H282.441V0.792969H276.883V55.6875Z" fill="white"/>
<path d="M310.609 36.6523H309.543C302.766 36.6523 292.414 37.1875 292.414 45.5625C292.414 49.9766 295.992 52.0312 300.105 52.0312C308.172 52.0312 310.609 46.0156 310.609 38.9375V36.6523ZM311.141 55.6875L310.914 49.5938C308.781 54.0117 303.832 56.5234 299.113 56.5234C292.34 56.5234 286.703 53.0977 286.703 45.7891C286.703 36.043 295.992 32.6172 307.637 32.6172H310.609V30.7891C310.609 25.0039 308.324 21.4258 302.082 21.4258C298.199 21.4258 294.547 22.2617 291.195 24.4688L290.738 19.5234C293.934 18.0781 298.809 17.0117 302.312 17.0117C311.754 17.0117 316.09 21.7305 316.09 31.1719V47.6172C316.09 50.4336 316.164 53.0977 316.547 55.6875" fill="white"/>
<path d="M339.461 21.7305C331.543 21.7305 328.727 29.9531 328.727 36.5781C328.727 43.2031 331.395 51.8047 339.461 51.8047C347.914 51.8047 349.969 43.5039 349.969 36.5781C349.969 29.5742 348.066 21.7305 339.461 21.7305ZM340.527 56.5234C335.273 56.5234 331.086 54.1641 328.652 49.3672L328.5 55.6875H323.398V0.792969H328.957V24.1641C330.859 19.7539 335.887 17.0117 340.605 17.0117C352.176 17.0117 355.984 26.5273 355.984 36.5781C355.984 46.3984 351.797 56.5234 340.527 56.5234Z" fill="white"/>
<path d="M362.453 55.6875H369V48.9102H362.453V55.6875Z" fill="white"/>
<path d="M0.0273438 119.359H369V76.3516H0.0273438V119.359Z" fill="#E10613"/>
<path d="M25.2539 105.512V99.1797H19.3047V105.512H15.9805V90.5312H19.3047V96.5039H25.2539V90.5312H28.5781V105.512" fill="white"/>
<path d="M32.7344 105.512V90.5312H42.5039V92.8203H35.9922V96.7539H42.2148V99.0195H35.9922V103.223H42.7031V105.512" fill="white"/>
<path d="M52.3203 92.6406L49.7812 99.4922H54.7891L52.3203 92.6406ZM56.8086 105.512L55.4844 101.762H49.1055L47.7578 105.512H44.4805L50.1836 90.5312H54.543L60.2695 105.512" fill="white"/>
<path d="M62.7617 105.512V90.5312H66.0859V102.859H72.5352V105.512" fill="white"/>
<path d="M80.9336 93.1797V105.512H77.5859V93.1797H72.8906V90.5312H85.625V93.1797" fill="white"/>
<path d="M97.6641 105.512V99.1797H91.7148V105.512H88.3867V90.5312H91.7148V96.5039H97.6641V90.5312H100.988V105.512" fill="white"/>
<path d="M117.605 101.672C115.879 101.672 114.484 100.277 114.484 98.5469C114.484 96.8203 115.879 95.4258 117.605 95.4258C119.336 95.4258 120.754 96.8203 120.754 98.5469C120.754 100.277 119.336 101.672 117.605 101.672Z" fill="white"/>
<path d="M140.875 93.1797V105.512H137.527V93.1797H132.836V90.5312H145.566V93.1797" fill="white"/>
<path d="M148.332 105.512V90.5312H158.102V92.8203H151.59V96.7539H157.809V99.0195H151.59V103.223H158.305V105.512" fill="white"/>
<path d="M169.219 105.758C164.391 105.758 161.02 102.996 161.02 98.0312C161.02 93.3398 164.637 90.3047 169.219 90.3047C170.406 90.3047 171.848 90.5078 172.969 90.8477L172.836 93.3398C171.914 92.957 170.746 92.7305 169.734 92.7305C166.547 92.7305 164.504 94.9102 164.504 98.0312C164.504 101.242 166.41 103.332 169.668 103.332C170.77 103.332 171.867 103.152 172.883 102.703L173.016 105.129C171.895 105.578 170.453 105.758 169.219 105.758Z" fill="white"/>
<path d="M184.133 105.512V99.1797H178.18V105.512H174.855V90.5312H178.18V96.5039H184.133V90.5312H187.457V105.512" fill="white"/>
<path d="M204.074 101.672C202.348 101.672 200.953 100.277 200.953 98.5469C200.953 96.8203 202.348 95.4258 204.074 95.4258C205.805 95.4258 207.219 96.8203 207.219 98.5469C207.219 100.277 205.805 101.672 204.074 101.672Z" fill="white"/>
<path d="M220.719 105.512V90.5312H230.488V92.8203H223.973V96.7539H230.195V99.0195H223.973V103.223H230.691V105.512" fill="white"/>
<path d="M243.805 105.512L240.031 99.4453L236.191 105.512H232.555L238.031 97.7188L233.137 90.5312H236.934L240.367 96.0117L243.762 90.5312H247.285L242.301 97.7188L247.738 105.512" fill="white"/>
<path d="M255.352 92.7539H253.531V97.7383H254.699C256.52 97.7383 258.312 97.4922 258.312 95.2266C258.312 93.4492 256.945 92.7539 255.352 92.7539ZM256.52 99.9844H253.555V105.512H250.297V90.5312H256.605C259.48 90.5312 261.66 92.1914 261.66 95.2031C261.66 98.3906 259.414 99.9844 256.52 99.9844Z" fill="white"/>
<path d="M264.738 105.512V90.5312H274.508V92.8203H267.992V96.7539H274.215V99.0195H267.992V103.223H274.711V105.512" fill="white"/>
<path d="M282.098 92.7539H280.504V97.0898H282.012C283.535 97.0898 285.129 96.6172 285.129 94.8438C285.129 93.0898 283.715 92.7539 282.098 92.7539ZM285.781 105.512L284.23 101.223C283.715 99.7617 283.379 99.3125 281.738 99.3125H280.527V105.512H277.27V90.5312H283.379C285.938 90.5312 288.477 91.5195 288.477 94.5078C288.477 96.5703 286.949 97.8086 285.02 98.1445C286.367 98.4141 286.926 99.1094 287.398 100.367L289.328 105.512" fill="white"/>
<path d="M292.297 105.512H295.617V90.5312H292.297V105.512Z" fill="white"/>
<path d="M299.773 105.512V90.5312H309.547V92.8203H303.031V96.7539H309.254V99.0195H303.031V103.223H309.746V105.512" fill="white"/>
<path d="M321.223 105.512L315.699 93.2695V105.512H312.754V90.5312H317.605L323.156 102.793V90.5312H326.098V105.512" fill="white"/>
<path d="M337.711 105.758C332.883 105.758 329.512 102.996 329.512 98.0312C329.512 93.3398 333.129 90.3047 337.711 90.3047C338.898 90.3047 340.336 90.5078 341.461 90.8477L341.324 93.3398C340.402 92.957 339.234 92.7305 338.227 92.7305C335.035 92.7305 332.992 94.9102 332.992 98.0312C332.992 101.242 334.902 103.332 338.156 103.332C339.262 103.332 340.359 103.152 341.367 102.703L341.504 105.129C340.383 105.578 338.945 105.758 337.711 105.758Z" fill="white"/>
<path d="M343.797 105.512V90.5312H353.566V92.8203H347.055V96.7539H353.273V99.0195H347.055V103.223H353.766V105.512" fill="white"/>
</svg>
