<svg width="27" height="29" viewBox="0 0 27 29" fill="none" xmlns="http://www.w3.org/2000/svg">
<path d="M10.25 23.75C4 25.625 4 20.625 1.5 20L10.25 23.75ZM19 27.5V22.6625C19.0469 22.0665 18.9664 21.4673 18.7638 20.9048C18.5612 20.3423 18.2412 19.8293 17.825 19.4C21.75 18.9625 25.875 17.475 25.875 10.65C25.8747 8.90483 25.2034 7.22654 24 5.96254C24.5698 4.43568 24.5295 2.74798 23.8875 1.25004C23.8875 1.25004 22.4125 0.812544 19 3.10004C16.135 2.32357 13.115 2.32357 10.25 3.10004C6.8375 0.812544 5.3625 1.25004 5.3625 1.25004C4.72047 2.74798 4.68018 4.43568 5.25 5.96254C4.03766 7.23592 3.36565 8.92937 3.375 10.6875C3.375 17.4625 7.5 18.95 11.425 19.4375C11.0137 19.8625 10.6966 20.3693 10.4941 20.9249C10.2917 21.4806 10.2085 22.0726 10.25 22.6625V27.5" fill="white"/>
<path d="M19 27.5V22.6625C19.0469 22.0665 18.9664 21.4673 18.7638 20.9048C18.5612 20.3423 18.2412 19.8293 17.825 19.4C21.75 18.9625 25.875 17.475 25.875 10.65C25.8747 8.90483 25.2034 7.22654 24 5.96254C24.5698 4.43568 24.5295 2.74798 23.8875 1.25004C23.8875 1.25004 22.4125 0.812544 19 3.10004C16.135 2.32357 13.115 2.32357 10.25 3.10004C6.8375 0.812544 5.3625 1.25004 5.3625 1.25004C4.72047 2.74798 4.68018 4.43568 5.25 5.96254C4.03766 7.23592 3.36565 8.92937 3.375 10.6875C3.375 17.4625 7.5 18.95 11.425 19.4375C11.0137 19.8625 10.6966 20.3693 10.4941 20.9249C10.2917 21.4806 10.2085 22.0726 10.25 22.6625V27.5M10.25 23.75C4 25.625 4 20.625 1.5 20L10.25 23.75Z" stroke="white" stroke-width="2" stroke-linecap="round" stroke-linejoin="round"/>
</svg>
