<svg width="30" height="30" viewBox="0 0 30 30" fill="none" xmlns="http://www.w3.org/2000/svg">
<path d="M21.25 2.5H8.75C5.29822 2.5 2.5 5.29822 2.5 8.75V21.25C2.5 24.7018 5.29822 27.5 8.75 27.5H21.25C24.7018 27.5 27.5 24.7018 27.5 21.25V8.75C27.5 5.29822 24.7018 2.5 21.25 2.5Z" stroke="#F2F2F2" stroke-width="2" stroke-linecap="round" stroke-linejoin="round"/>
<path d="M19.9996 14.2126C20.1539 15.2529 19.9762 16.3154 19.4918 17.2489C19.0075 18.1824 18.2411 18.9394 17.3017 19.4122C16.3623 19.885 15.2977 20.0496 14.2594 19.8825C13.221 19.7155 12.2618 19.2252 11.5182 18.4816C10.7745 17.7379 10.2843 16.7787 10.1172 15.7404C9.95014 14.7021 10.1147 13.6375 10.5875 12.6981C11.0604 11.7587 11.8174 10.9923 12.7509 10.5079C13.6844 10.0236 14.7468 9.84587 15.7871 10.0001C16.8483 10.1575 17.8307 10.652 18.5893 11.4105C19.3478 12.1691 19.8423 13.1515 19.9996 14.2126Z" stroke="#F2F2F2" stroke-width="2" stroke-linecap="round" stroke-linejoin="round"/>
<path d="M21.875 8.125H21.8875" stroke="#F2F2F2" stroke-width="2" stroke-linecap="round" stroke-linejoin="round"/>
</svg>
