<svg width="30" height="30" viewBox="0 0 30 30" fill="none" xmlns="http://www.w3.org/2000/svg">
<path d="M28.75 3.75012C27.553 4.59447 26.2276 5.24026 24.825 5.66262C24.0722 4.79701 23.0717 4.18348 21.9588 3.90503C20.8459 3.62657 19.6744 3.69661 18.6026 4.10569C17.5308 4.51476 16.6106 5.24312 15.9662 6.19226C15.3219 7.14141 14.9846 8.26554 15 9.41262V10.6626C12.8033 10.7196 10.6266 10.2324 8.66376 9.24443C6.70093 8.25647 5.0129 6.79841 3.75 5.00012C3.75 5.00012 -1.25 16.2501 10 21.2501C7.42566 22.9976 4.35895 23.8738 1.25 23.7501C12.5 30.0001 26.25 23.7501 26.25 9.37512C26.2488 9.02694 26.2154 8.67961 26.15 8.33762C27.4258 7.07949 28.326 5.49101 28.75 3.75012Z" fill="#1DA1F2"/>
</svg>
