<svg width="1423" height="384" viewBox="0 0 1423 384" fill="none" xmlns="http://www.w3.org/2000/svg">
<path fill-rule="evenodd" clip-rule="evenodd" d="M0 298.667H39.1325C79.4508 298.667 157.716 298.667 237.167 270.222C316.618 241.778 394.883 184.889 474.333 199.111C553.784 213.333 632.049 298.667 711.5 284.444C790.951 270.222 869.216 156.444 948.667 113.778C1028.12 71.1111 1106.38 99.5556 1185.83 92.4444C1265.28 85.3333 1343.55 42.6667 1383.87 21.3333L1423 0V384H1383.87C1343.55 384 1265.28 384 1185.83 384C1106.38 384 1028.12 384 948.667 384C869.216 384 790.951 384 711.5 384C632.049 384 553.784 384 474.333 384C394.883 384 316.618 384 237.167 384C157.716 384 79.4508 384 39.1325 384H0V298.667Z" fill="url(#paint0_linear_31_2)"/>
<defs>
<linearGradient id="paint0_linear_31_2" x1="711.5" y1="0" x2="711.5" y2="384" gradientUnits="userSpaceOnUse">
<stop offset="0.192708" stop-color="#E10613"/>
<stop offset="0.609375" stop-color="#AC050F"/>
<stop offset="1" stop-color="#151515"/>
</linearGradient>
</defs>
</svg>
