<svg width="74" height="110" viewBox="0 0 74 110" fill="none" xmlns="http://www.w3.org/2000/svg">
<path d="M12.7134 90.9257H61.0182V18.0516H12.7134V90.9257Z" fill="#E10613"/>
<path d="M7.67513 5.92004C6.70326 5.92004 5.88591 6.72561 5.88591 7.68348V102.572C5.88591 103.526 6.70326 104.336 7.67513 104.336H66.0606C67.0325 104.336 67.8498 103.526 67.8498 102.572V7.68348C67.8498 6.72561 67.0325 5.92004 66.0606 5.92004H7.67513ZM66.0606 109.466H7.67513C3.81611 109.466 0.680908 106.372 0.680908 102.572V7.68348C0.680908 3.88407 3.81611 0.790039 7.67513 0.790039H66.0606C69.9155 0.790039 73.0548 3.88407 73.0548 7.68348V102.572C73.0548 106.372 69.9155 109.466 66.0606 109.466Z" fill="white"/>
<path d="M15.3158 88.3607H58.4157V20.6167H15.3158V88.3607ZM61.0182 93.4907H12.7133C11.2779 93.4907 10.1108 92.3405 10.1108 90.9257V18.0517C10.1108 16.6369 11.2779 15.4867 12.7133 15.4867H61.0182C62.4577 15.4867 63.6207 16.6369 63.6207 18.0517V90.9257C63.6207 92.3405 62.4577 93.4907 61.0182 93.4907Z" fill="white"/>
<path d="M48.5302 13.2543H25.2053C23.7658 13.2543 22.6028 12.1041 22.6028 10.6893C22.6028 9.27056 23.7658 8.12433 25.2053 8.12433H48.5302C49.9656 8.12433 51.1327 9.27056 51.1327 10.6893C51.1327 12.1041 49.9656 13.2543 48.5302 13.2543Z" fill="white"/>
<path d="M41.2595 101.498H32.476C31.0406 101.498 29.8735 100.352 29.8735 98.9333C29.8735 97.5186 31.0406 96.3683 32.476 96.3683H41.2595C42.6949 96.3683 43.862 97.5186 43.862 98.9333C43.862 100.352 42.6949 101.498 41.2595 101.498Z" fill="white"/>
</svg>
