<svg width="146" height="120" viewBox="0 0 146 120" fill="none" xmlns="http://www.w3.org/2000/svg">
<path d="M45.8752 75.6715L43.2849 104.848C42.9474 108.644 41.3575 111.638 38.9257 113.056C36.9413 114.219 34.5584 114.259 32.0332 113.169C25.6733 110.423 20.6757 103.878 21.1189 98.8807L22.9936 77.7555C23.4409 72.7538 29.5161 67.1669 36.2622 65.5518C37.0552 65.3634 37.8197 65.2672 38.5476 65.2672C40.2758 65.2672 41.7966 65.7962 43.0287 66.8423C45.1758 68.6578 46.2087 71.8761 45.8752 75.6715ZM46.4201 62.9507C43.3866 60.3817 39.3446 59.536 35.0342 60.566C26.019 62.7262 18.4514 70.0806 17.813 77.3067L15.9343 98.4359C15.2959 105.662 21.4483 114.199 29.9471 117.866C31.8339 118.683 33.7329 119.088 35.571 119.088C37.6977 119.088 39.739 118.547 41.5811 117.469C45.4727 115.197 47.9816 110.756 48.4696 105.293L51.0558 76.1204C51.5438 70.6577 49.8522 65.8604 46.4201 62.9507Z" fill="white"/>
<path d="M6.38228 80.4568C6.45954 79.5751 6.83771 78.7816 7.44361 78.2205C7.74859 77.9359 8.39515 77.471 9.23689 77.5472L13.3724 77.9039C14.8079 78.0281 16.0685 76.9821 16.1904 75.5713C16.3165 74.1606 15.2552 72.9181 13.8238 72.7939L9.69233 72.4372C7.5656 72.2448 5.50393 72.9783 3.8855 74.4772C2.34027 75.904 1.38873 77.8678 1.19761 80.008L0.0346157 93.0895C-0.367959 97.6303 2.78757 101.63 7.06543 101.999L11.201 102.356C11.2782 102.364 11.3555 102.364 11.4328 102.364C12.7665 102.364 13.9051 101.358 14.019 100.023C14.145 98.6122 13.0878 97.3658 11.6564 97.2456L7.52087 96.8889C6.12203 96.7686 5.06883 95.2296 5.21928 93.5343" fill="white"/>
<path d="M113.5 113.169C110.978 114.259 108.596 114.219 106.607 113.056C104.175 111.638 102.589 108.644 102.248 104.848L99.6617 75.6715C99.3241 71.8761 100.361 68.6578 102.504 66.8423C103.736 65.7962 105.261 65.2672 106.985 65.2672C107.713 65.2672 108.482 65.3634 109.275 65.5518C116.021 67.1669 122.096 72.7538 122.539 77.7555L124.414 98.8807C124.857 103.878 119.859 110.423 113.5 113.169ZM127.724 77.3067C127.081 70.0806 119.518 62.7262 110.503 60.566C106.192 59.536 102.146 60.3817 99.1127 62.9507C95.6806 65.8604 93.9931 70.6577 94.477 76.1204L97.0673 105.293C97.5512 110.756 100.06 115.197 103.952 117.469C105.798 118.547 107.839 119.088 109.962 119.088C111.8 119.088 113.703 118.679 115.59 117.866C124.089 114.199 130.241 105.662 129.599 98.4359" fill="white"/>
<path d="M145.498 93.0895L144.335 80.008C144.144 77.8678 143.192 75.904 141.647 74.4772C140.025 72.9783 137.959 72.2569 135.844 72.4372L131.709 72.7939C130.277 72.9182 129.216 74.1606 129.342 75.5713C129.468 76.9861 130.729 78.0281 132.16 77.9039L136.296 77.5472C137.162 77.479 137.784 77.9359 138.089 78.2205C138.695 78.7816 139.073 79.5751 139.15 80.4568L140.313 93.5343C140.464 95.2337 139.411 96.7686 138.016 96.8889L133.88 97.2456C132.449 97.3698 131.388 98.6122 131.514 100.023C131.632 101.358 132.766 102.364 134.104 102.364C134.177 102.364 134.254 102.364 134.332 102.356L138.467 101.999C142.745 101.63 145.901 97.6343 145.498 93.0895Z" fill="white"/>
<path d="M12.6161 65.2151C12.795 65.2552 12.978 65.2712 13.1528 65.2712C14.3565 65.2712 15.4422 64.4416 15.6984 63.2313C22.9447 29.0206 46.412 5.13 72.7663 5.13C99.1207 5.13 122.588 29.0206 129.838 63.2313C130.131 64.618 131.518 65.5077 132.917 65.2151C134.324 64.9266 135.226 63.5679 134.934 62.1812C127.175 25.5698 101.609 0 72.7663 0C43.9233 0 18.3578 25.5698 10.6032 62.1812C10.3063 63.5679 11.2131 64.9266 12.6161 65.2151Z" fill="white"/>
<path d="M116.83 59.1152C117.09 60.3256 118.172 61.1512 119.375 61.1512C119.554 61.1512 119.733 61.1352 119.916 61.0951C121.319 60.8065 122.222 59.4439 121.925 58.0572C115.801 29.4814 95.587 9.52655 72.7663 9.52655C49.9457 9.52655 29.7316 29.4814 23.6075 58.0572C23.3148 59.4439 24.2134 60.8065 25.6204 61.0951C27.0193 61.3836 28.4059 60.5059 28.7028 59.1152C34.3103 32.9402 52.4302 14.6566 72.7663 14.6566C93.1024 14.6566 111.222 32.9402 116.83 59.1152Z" fill="white"/>
</svg>
