<svg width="6" height="190" viewBox="0 0 6 190" fill="none" xmlns="http://www.w3.org/2000/svg">
<path d="M5.29997 8.824H0.0949707V0.615997H5.29997V8.824ZM5.29997 25.24H0.0949707V17.032H5.29997V25.24ZM5.29997 41.656H0.0949707V33.448H5.29997V41.656ZM5.29997 58.072H0.0949707V49.864H5.29997V58.072ZM5.29997 74.488H0.0949707V66.28H5.29997V74.488ZM5.29997 90.904H0.0949707V82.696H5.29997V90.904ZM5.29997 107.32H0.0949707V99.112H5.29997V107.32ZM5.29997 123.736H0.0949707V115.528H5.29997V123.736ZM5.29997 140.152H0.0949707V131.944H5.29997V140.152ZM5.29997 156.568H0.0949707V148.36H5.29997V156.568ZM5.29997 172.984H0.0949707V164.776H5.29997V172.984ZM5.29997 189.4H0.0949707V181.192H5.29997V189.4Z" fill="#E10613"/>
</svg>
