<svg width="189" height="6" viewBox="0 0 189 6" fill="none" xmlns="http://www.w3.org/2000/svg">
<path d="M180.576 5.205L180.576 -3.58783e-07L188.784 0L188.784 5.205L180.576 5.205ZM164.16 5.205L164.16 -1.07635e-06L172.368 -7.17566e-07L172.368 5.205L164.16 5.205ZM147.744 5.205L147.744 -1.79392e-06L155.952 -1.43513e-06L155.952 5.205L147.744 5.205ZM131.328 5.205L131.328 -2.51148e-06L139.536 -2.1527e-06L139.536 5.205L131.328 5.205ZM114.912 5.205L114.912 -3.22905e-06L123.12 -2.87026e-06L123.12 5.205L114.912 5.205ZM98.496 5.205L98.496 -3.94661e-06L106.704 -3.58783e-06L106.704 5.205L98.496 5.205ZM82.08 5.205L82.08 -4.66418e-06L90.288 -4.3054e-06L90.288 5.205L82.08 5.205ZM65.664 5.20499L65.664 -5.38175e-06L73.872 -5.02296e-06L73.872 5.20499L65.664 5.20499ZM49.248 5.20499L49.248 -6.09931e-06L57.456 -5.74053e-06L57.456 5.20499L49.248 5.20499ZM32.832 5.20499L32.832 -6.81688e-06L41.04 -6.4581e-06L41.04 5.20499L32.832 5.20499ZM16.416 5.20499L16.416 -7.53445e-06L24.624 -7.17566e-06L24.624 5.20499L16.416 5.20499ZM-2.27518e-07 5.20499L0 -8.25201e-06L8.20799 -7.89323e-06L8.20799 5.20499L-2.27518e-07 5.20499Z" fill="#E10613"/>
</svg>
