<svg width="176" height="87" viewBox="0 0 176 87" fill="none" xmlns="http://www.w3.org/2000/svg">
<path d="M43.6488 75.0903H131.861V11.2499H43.6488V75.0903Z" fill="#E10613"/>
<path d="M30.9819 5.13C16.7699 5.13 5.205 16.5242 5.205 30.5355V55.8088C5.205 69.8161 16.7699 81.2143 30.9819 81.2143H144.528C158.744 81.2143 170.305 69.8161 170.305 55.8088V30.5355C170.305 16.5242 158.744 5.13 144.528 5.13H30.9819ZM144.528 86.3443H30.9819C13.899 86.3443 0 72.6456 0 55.8088V30.5355C0 13.6987 13.899 0 30.9819 0H144.528C161.611 0 175.51 13.6987 175.51 30.5355V55.8088C175.51 72.6456 161.611 86.3443 144.528 86.3443Z" fill="white"/>
<path d="M20.7468 47.5888H25.8664V43.3204C25.8664 42.1862 26.8016 41.2684 27.9484 41.2684H32.2791V36.2226H27.9484C26.8016 36.2226 25.8664 35.3008 25.8664 34.1706V29.9023H20.7468V34.1706C20.7468 35.3008 19.8115 36.2226 18.6648 36.2226H14.334V41.2684H18.6648C19.8115 41.2684 20.7468 42.1862 20.7468 43.3204V47.5888ZM27.9484 51.6928H18.6648C17.514 51.6928 16.5828 50.775 16.5828 49.6408V45.3724H12.252C11.1013 45.3724 10.17 44.4546 10.17 43.3204V34.1706C10.17 33.0364 11.1013 32.1186 12.252 32.1186H16.5828V27.8503C16.5828 26.7161 17.514 25.7983 18.6648 25.7983H27.9484C29.0992 25.7983 30.0304 26.7161 30.0304 27.8503V32.1186H34.3611C35.5119 32.1186 36.4431 33.0364 36.4431 34.1706V43.3204C36.4431 44.4546 35.5119 45.3724 34.3611 45.3724H30.0304V49.6408C30.0304 50.775 29.0992 51.6928 27.9484 51.6928Z" fill="white"/>
<path d="M26.9602 61.6201C24.5936 61.6201 22.6661 63.5198 22.6661 65.8564C22.6661 68.1889 24.5936 70.0886 26.9602 70.0886C29.3268 70.0886 31.2543 68.1889 31.2543 65.8564C31.2543 63.5198 29.3268 61.6201 26.9602 61.6201ZM26.9602 74.1926C22.296 74.1926 18.5021 70.4533 18.5021 65.8564C18.5021 61.2594 22.296 57.5161 26.9602 57.5161C31.6244 57.5161 35.4183 61.2594 35.4183 65.8564C35.4183 70.4533 31.6244 74.1926 26.9602 74.1926Z" fill="white"/>
<path d="M151.616 34.1826C150.233 34.1826 149.111 35.2928 149.111 36.6554C149.111 38.0181 150.233 39.1283 151.616 39.1283C153.003 39.1283 154.129 38.0181 154.129 36.6554C154.129 35.2928 153.003 34.1826 151.616 34.1826ZM151.616 43.2323C147.94 43.2323 144.947 40.2825 144.947 36.6554C144.947 33.0284 147.94 30.0786 151.616 30.0786C155.296 30.0786 158.293 33.0284 158.293 36.6554C158.293 40.2825 155.296 43.2323 151.616 43.2323Z" fill="white"/>
<path d="M151.616 52.7187C150.233 52.7187 149.111 53.8289 149.111 55.1916C149.111 56.5542 150.233 57.6644 151.616 57.6644C153.003 57.6644 154.129 56.5542 154.129 55.1916C154.129 53.8289 153.003 52.7187 151.616 52.7187ZM151.616 61.7684C147.94 61.7684 144.947 58.8186 144.947 55.1916C144.947 51.5645 147.94 48.6147 151.616 48.6147C155.296 48.6147 158.293 51.5645 158.293 55.1916C158.293 58.8186 155.296 61.7684 151.616 61.7684Z" fill="white"/>
<path d="M142.214 43.4487C140.832 43.4487 139.705 44.5588 139.705 45.9215C139.705 47.2881 140.832 48.3983 142.214 48.3983C143.601 48.3983 144.723 47.2881 144.723 45.9215C144.723 44.5588 143.601 43.4487 142.214 43.4487ZM142.214 52.5023C138.534 52.5023 135.541 49.5526 135.541 45.9215C135.541 42.2944 138.534 39.3447 142.214 39.3447C145.894 39.3447 148.887 42.2944 148.887 45.9215C148.887 49.5526 145.894 52.5023 142.214 52.5023Z" fill="white"/>
<path d="M161.021 43.4487C159.639 43.4487 158.513 44.5588 158.513 45.9215C158.513 47.2881 159.639 48.3983 161.021 48.3983C162.404 48.3983 163.53 47.2881 163.53 45.9215C163.53 44.5588 162.404 43.4487 161.021 43.4487ZM161.021 52.5023C157.341 52.5023 154.349 49.5526 154.349 45.9215C154.349 42.2944 157.341 39.3447 161.021 39.3447C164.702 39.3447 167.694 42.2944 167.694 45.9215C167.694 49.5526 164.702 52.5023 161.021 52.5023Z" fill="white"/>
</svg>
