<svg width="275" height="300" viewBox="0 0 275 300" fill="none" xmlns="http://www.w3.org/2000/svg">
<path fill-rule="evenodd" clip-rule="evenodd" d="M0 0V42.194C0 47.7945 0 50.5948 1.08993 52.7339C2.04867 54.6155 3.57847 56.1453 5.46009 57.104C7.59921 58.194 10.3995 58.194 16 58.194H25H34C39.6005 58.194 42.4008 58.194 44.5399 57.104C46.4215 56.1453 47.9513 54.6155 48.9101 52.7339C50 50.5948 50 47.7945 50 42.194V37.5836C50 35.2603 50 34.0987 50.1921 33.1327C50.9812 29.1658 54.0822 26.0648 58.0491 25.2758C59.0151 25.0836 60.1767 25.0836 62.5 25.0836C64.8233 25.0836 65.9849 25.0836 66.9509 25.2758C70.9178 26.0648 74.0188 29.1658 74.8079 33.1327C75 34.0987 75 35.2603 75 37.5836V45.694C75 48.0173 75 49.1789 75.1921 50.1449C75.9812 54.1118 79.0822 57.2128 83.0491 58.0018C84.0151 58.194 85.1767 58.194 87.5 58.194H91.9732C96.4063 58.194 100 54.6003 100 50.1672C100 45.7342 103.594 42.1405 108.027 42.1405H116.973C121.406 42.1405 125 45.7342 125 50.1672C125 54.6003 128.594 58.194 133.027 58.194H137.5C139.823 58.194 140.985 58.194 141.951 58.0018C145.918 57.2128 149.019 54.1118 149.808 50.1449C150 49.1789 150 48.0173 150 45.694V12.5C150 10.1767 150 9.01509 150.192 8.0491C150.981 4.08219 154.082 0.981214 158.049 0.192147C159.015 0 160.177 0 162.5 0C164.823 0 165.985 0 166.951 0.192147C170.918 0.981214 174.019 4.08219 174.808 8.0491C175 9.01509 175 10.1767 175 12.5V20.6104C175 22.9336 175 24.0953 175.192 25.0613C175.981 29.0282 179.082 32.1292 183.049 32.9182C184.015 33.1104 185.177 33.1104 187.5 33.1104H191.472C196.182 33.1104 200 36.9287 200 41.6388C200 46.3489 203.818 50.1672 208.528 50.1672H220.987C223.203 50.1672 225 48.3704 225 46.1538C225 43.9373 226.797 42.1405 229.013 42.1405H237.5C239.823 42.1405 240.985 42.1405 241.951 42.3326C245.918 43.1217 249.019 46.2227 249.808 50.1896C250 51.1556 250 52.3172 250 54.6405V62.7508C250 65.0741 250 66.2358 250.192 67.2017C250.981 71.1686 254.082 74.2696 258.049 75.0587C259.015 75.2508 260.177 75.2508 262.5 75.2508C264.823 75.2508 265.985 75.2508 266.951 75.443C270.918 76.2321 274.019 79.333 274.808 83.2999C275 84.2659 275 85.4276 275 87.7508V284C275 289.601 275 292.401 273.91 294.54C272.951 296.422 271.422 297.951 269.54 298.91C267.401 300 264.601 300 259 300H250H225H200H175H150H125H100H75H50H25H16C10.3995 300 7.59921 300 5.46009 298.91C3.57847 297.951 2.04867 296.422 1.08993 294.54C0 292.401 0 289.601 0 284V0Z" fill="url(#paint0_linear)"/>
<defs>
<linearGradient id="paint0_linear" x1="137.5" y1="0" x2="137.5" y2="300" gradientUnits="userSpaceOnUse">
<stop stop-color="#27ABEE"/>
<stop offset="1" stop-color="#228EC5"/>
</linearGradient>
</defs>
</svg>
