<svg width="90" height="90" viewBox="0 0 825 802" fill="none" xmlns="http://www.w3.org/2000/svg">
<g clip-path="url(#clip0)">
<rect width="57" height="285" transform="matrix(0.642788 -0.766044 -0.766044 -0.642788 374.735 622.582)" fill="url(#paint0_radial)"/>
<path d="M435.948 638.307L411.374 578.917L374.735 622.582L435.948 638.307Z" fill="url(#paint1_linear)"/>
<rect x="317.8" y="377.344" width="100.5" height="175.5" rx="50.25" transform="rotate(-50 317.8 377.344)" fill="url(#paint2_linear)" stroke="black" stroke-width="0.5"/>
<line x1="350.996" y1="338.95" x2="391.596" y2="373.017" stroke="black" stroke-linecap="round"/>
<line x1="373.212" y1="357.591" x2="383.17" y2="365.947" stroke="black" stroke-width="7" stroke-linecap="round"/>
<ellipse cx="364.28" cy="377.516" rx="12" ry="27.5" transform="rotate(-50 364.28 377.516)" fill="url(#paint3_radial)"/>
<ellipse cx="391.277" cy="345.343" rx="12" ry="27.5" transform="rotate(-50 391.277 345.343)" fill="url(#paint4_radial)"/>
<path d="M392.036 373.395C392.028 373.119 391.798 372.902 391.522 372.91C391.246 372.918 391.029 373.148 391.037 373.424L387.897 403.852L361.604 413.5C361.354 413.618 361.248 413.916 361.366 414.166C361.484 414.415 361.782 414.522 362.032 414.404L388.455 404.694C388.525 404.66 388.71 404.534 388.71 404.534C388.71 404.534 388.91 404.296 388.904 404.095L392.036 373.395Z" fill="black"/>
<path d="M391.669 373.511C391.396 373.551 391.142 373.362 391.102 373.089C391.063 372.815 391.252 372.561 391.525 372.522L420.945 364.146L425.836 337.021C425.909 336.755 426.151 336.891 426.418 336.964C426.318 336.934 426.801 337.285 426.801 337.285L421.871 364.549C421.85 364.624 421.758 364.828 421.758 364.828C421.758 364.828 421.558 365.067 421.36 365.096L391.669 373.511Z" fill="black"/>
<path fill-rule="evenodd" clip-rule="evenodd" d="M592.252 698.057C595.624 700.886 600.742 698.294 600.456 693.902L569.506 218.85C569.321 216.007 566.802 213.894 563.97 214.205L90.7611 266.217C86.3862 266.698 84.7219 272.188 88.0934 275.017L592.252 698.057ZM524.396 583.659C527.768 586.488 532.886 583.896 532.599 579.504L513.458 285.695C513.272 282.853 510.753 280.739 507.922 281.05L215.253 313.219C210.878 313.699 209.214 319.19 212.585 322.019L524.396 583.659Z" fill="url(#paint5_linear)"/>
</g>
<defs>
<radialGradient id="paint0_radial" cx="0" cy="0" r="1" gradientUnits="userSpaceOnUse" gradientTransform="translate(28.5 142.5) rotate(90) scale(142.5 28.5)">
<stop stop-color="white"/>
<stop offset="1" stop-color="#D0D0D0"/>
</radialGradient>
<linearGradient id="paint1_linear" x1="436.719" y1="637.388" x2="393.054" y2="600.749" gradientUnits="userSpaceOnUse">
<stop stop-color="#C8C8C8"/>
<stop offset="1" stop-color="white"/>
</linearGradient>
<linearGradient id="paint2_linear" x1="368.152" y1="377.314" x2="368.152" y2="552.314" gradientUnits="userSpaceOnUse">
<stop stop-color="white"/>
<stop offset="1" stop-color="#D0D0D0"/>
</linearGradient>
<radialGradient id="paint3_radial" cx="0" cy="0" r="1" gradientUnits="userSpaceOnUse" gradientTransform="translate(364.28 377.516) rotate(90) scale(27.5 12)">
<stop stop-color="white"/>
<stop offset="0.0001" stop-color="#D2D2D2"/>
<stop offset="0.776042" stop-color="#ECECEC" stop-opacity="0"/>
</radialGradient>
<radialGradient id="paint4_radial" cx="0" cy="0" r="1" gradientUnits="userSpaceOnUse" gradientTransform="translate(391.277 345.343) rotate(90) scale(27.5 12)">
<stop stop-color="white"/>
<stop offset="0.0001" stop-color="#D2D2D2"/>
<stop offset="0.776042" stop-color="#ECECEC" stop-opacity="0"/>
</radialGradient>
<linearGradient id="paint5_linear" x1="567.73" y1="215.345" x2="340.173" y2="486.537" gradientUnits="userSpaceOnUse">
<stop stop-color="white"/>
<stop offset="1" stop-color="#D0D0D0"/>
</linearGradient>
<clipPath id="clip0">
<rect width="669" height="484" fill="white" transform="translate(311.813 0.604736) rotate(40)"/>
</clipPath>
</defs>
</svg>
