<svg width="75" height="75" viewBox="0 0 450 912" fill="none" xmlns="http://www.w3.org/2000/svg">
<path fill-rule="evenodd" clip-rule="evenodd" d="M25 0C11.1929 0 0 11.1929 0 25V887C0 900.807 11.1929 912 25 912H425C438.807 912 450 900.807 450 887V25C450 11.1929 438.807 0 425 0H25ZM52 50C43.7157 50 37 56.7157 37 65V847C37 855.284 43.7157 862 52 862H397C405.284 862 412 855.284 412 847V65C412 56.7157 405.284 50 397 50H52Z" fill="#C7C7C7"/>
<circle cx="225" cy="887" r="22" fill="url(#paint0_radial)"/>
<circle cx="225" cy="887" r="21.5" stroke="black" stroke-opacity="0.23"/>
<defs>
<radialGradient id="paint0_radial" cx="0" cy="0" r="1" gradientUnits="userSpaceOnUse" gradientTransform="translate(225 887) rotate(90) scale(22)">
<stop stop-color="#F0F0F0"/>
<stop offset="1" stop-color="#454545" stop-opacity="0"/>
</radialGradient>
</defs>
</svg>
